# Blender v2.79 (sub 0) OBJ File: 'cup.blend'
# www.blender.org
o Cone_Cone.001
v 0.000000 -1.735000 -0.610000
v -0.000000 0.996853 -1.731199
v 0.431335 -1.735000 -0.431335
v 1.224142 0.996853 -1.224142
v 0.610000 -1.735000 0.000000
v 1.731199 0.996853 0.000000
v 0.431335 -1.735000 0.431335
v 1.224142 0.996853 1.224142
v -0.000000 -1.735000 0.610000
v -0.000000 0.996853 1.731199
v -0.431335 -1.735000 0.431335
v -1.224142 0.996853 1.224142
v -0.610000 -1.735000 -0.000000
v -1.731199 0.996853 -0.000000
v -0.431335 -1.735000 -0.431335
v -1.224142 0.996853 -1.224142
v 1.414214 2.539733 -1.414214
v 0.000000 2.539733 -2.000000
v 2.000000 2.539733 0.000000
v 1.414214 2.539733 1.414214
v -0.000000 2.539733 2.000000
v -1.414214 2.539733 1.414213
v -2.000000 2.539733 -0.000000
v -1.414214 2.539733 -1.414213
v 1.038491 2.539733 -1.038491
v -0.000000 2.539733 -1.468648
v 1.468648 2.539733 0.000000
v 1.038491 2.539733 1.038491
v -0.000000 2.539733 1.468648
v -1.038491 2.539733 1.038491
v -1.468648 2.539733 -0.000000
v -1.038491 2.539733 -1.038491
v 0.698161 0.936304 -0.698161
v -0.000000 0.936304 -0.987349
v 0.987349 0.936304 0.000000
v 0.698161 0.936304 0.698161
v -0.000000 0.936304 0.987349
v -0.698161 0.936304 0.698161
v -0.987348 0.936304 -0.000000
v -0.698161 0.936304 -0.698161
v 0.000000 -2.478384 -0.610000
v 0.431335 -2.478384 -0.431335
v 0.610000 -2.478384 0.000000
v 0.431335 -2.478384 0.431335
v 0.000000 -2.478384 0.610000
v -0.431335 -2.478384 0.431335
v -0.610000 -2.478384 -0.000000
v -0.431335 -2.478384 -0.431335
v 0.000000 -2.762557 -1.195698
v 0.845487 -2.762557 -0.845486
v 1.195699 -2.762557 0.000000
v 0.845487 -2.762557 0.845486
v 0.000000 -2.762557 1.195698
v -0.845486 -2.762557 0.845486
v -1.195698 -2.762557 -0.000000
v -0.845486 -2.762557 -0.845486
v 0.000000 -3.087548 -1.195698
v 0.845487 -3.087548 -0.845486
v 1.195699 -3.087548 0.000000
v 0.845487 -3.087548 0.845486
v 0.000000 -3.087548 1.195698
v -0.845486 -3.087548 0.845486
v -1.195698 -3.087548 -0.000000
v -0.845486 -3.087548 -0.845486
vn 0.3578 -0.3545 -0.8639
vn 0.8639 -0.3545 -0.3578
vn 0.8639 -0.3545 0.3578
vn 0.3578 -0.3545 0.8639
vn -0.3578 -0.3545 0.8639
vn -0.8639 -0.3545 0.3578
vn 0.3778 -0.1589 0.9121
vn -0.8639 -0.3545 -0.3578
vn -0.3578 -0.3545 -0.8639
vn -0.3827 -0.0000 0.9239
vn 0.0000 1.0000 -0.0000
vn -0.9121 -0.1589 -0.3778
vn 0.9121 -0.1589 -0.3778
vn -0.3778 -0.1589 0.9121
vn -0.3778 -0.1589 -0.9121
vn 0.3778 -0.1589 -0.9121
vn 0.9121 -0.1589 0.3778
vn -0.9121 -0.1589 0.3778
vn 0.8903 0.2672 0.3688
vn 0.3688 0.2672 -0.8903
vn -0.8903 0.2672 -0.3688
vn -0.3688 0.2672 0.8903
vn 0.3688 0.2672 0.8903
vn 0.8903 0.2672 -0.3688
vn -0.3688 0.2672 -0.8903
vn -0.8903 0.2672 0.3688
vn -0.1779 0.8853 -0.4296
vn -0.3827 -0.0000 -0.9239
vn 0.3827 0.0000 -0.9239
vn 0.9239 0.0000 0.3827
vn -0.9239 -0.0000 0.3827
vn 0.3827 0.0000 0.9239
vn -0.9239 -0.0000 -0.3827
vn 0.9239 0.0000 -0.3827
vn -0.4296 0.8853 0.1779
vn 0.1779 0.8853 0.4296
vn 0.4296 0.8853 -0.1779
vn -0.4296 0.8853 -0.1779
vn -0.1779 0.8853 0.4296
vn 0.4296 0.8853 0.1779
vn 0.1779 0.8853 -0.4296
vn 0.0000 -1.0000 0.0000
s off
f 2//1 3//1 1//1
f 4//2 5//2 3//2
f 6//3 7//3 5//3
f 8//4 9//4 7//4
f 10//5 11//5 9//5
f 12//6 13//6 11//6
f 8//7 21//7 10//7
f 14//8 15//8 13//8
f 16//9 1//9 15//9
f 9//10 46//10 45//10
f 18//11 25//11 17//11
f 14//12 24//12 16//12
f 4//13 19//13 6//13
f 10//14 22//14 12//14
f 16//15 18//15 2//15
f 2//16 17//16 4//16
f 6//17 20//17 8//17
f 12//18 23//18 14//18
f 31//19 40//19 32//19
f 18//11 32//11 26//11
f 22//11 31//11 23//11
f 20//11 29//11 21//11
f 17//11 27//11 19//11
f 23//11 32//11 24//11
f 22//11 29//11 30//11
f 19//11 28//11 20//11
f 35//11 34//11 39//11
f 30//20 37//20 38//20
f 27//21 36//21 28//21
f 26//22 33//22 25//22
f 26//23 40//23 34//23
f 30//24 39//24 31//24
f 28//25 37//25 29//25
f 25//26 35//26 27//26
f 41//27 56//27 48//27
f 1//28 48//28 15//28
f 3//29 41//29 1//29
f 5//30 44//30 43//30
f 11//31 47//31 46//31
f 7//32 45//32 44//32
f 15//33 47//33 13//33
f 5//34 42//34 3//34
f 52//30 59//30 51//30
f 47//35 54//35 46//35
f 44//36 53//36 52//36
f 43//37 50//37 42//37
f 48//38 55//38 47//38
f 45//39 54//39 53//39
f 43//40 52//40 51//40
f 42//41 49//41 41//41
f 60//42 62//42 64//42
f 49//29 58//29 57//29
f 56//28 57//28 64//28
f 55//31 62//31 54//31
f 53//32 60//32 52//32
f 50//34 59//34 58//34
f 55//33 64//33 63//33
f 54//10 61//10 53//10
f 2//1 4//1 3//1
f 4//2 6//2 5//2
f 6//3 8//3 7//3
f 8//4 10//4 9//4
f 10//5 12//5 11//5
f 12//6 14//6 13//6
f 8//7 20//7 21//7
f 14//8 16//8 15//8
f 16//9 2//9 1//9
f 9//10 11//10 46//10
f 18//11 26//11 25//11
f 14//12 23//12 24//12
f 4//13 17//13 19//13
f 10//14 21//14 22//14
f 16//15 24//15 18//15
f 2//16 18//16 17//16
f 6//17 19//17 20//17
f 12//18 22//18 23//18
f 31//19 39//19 40//19
f 18//11 24//11 32//11
f 22//11 30//11 31//11
f 20//11 28//11 29//11
f 17//11 25//11 27//11
f 23//11 31//11 32//11
f 22//11 21//11 29//11
f 19//11 27//11 28//11
f 35//11 33//11 34//11
f 34//11 40//11 39//11
f 39//11 38//11 37//11
f 37//11 36//11 39//11
f 36//11 35//11 39//11
f 30//20 29//20 37//20
f 27//21 35//21 36//21
f 26//22 34//22 33//22
f 26//23 32//23 40//23
f 30//24 38//24 39//24
f 28//25 36//25 37//25
f 25//26 33//26 35//26
f 41//27 49//27 56//27
f 1//28 41//28 48//28
f 3//29 42//29 41//29
f 5//30 7//30 44//30
f 11//31 13//31 47//31
f 7//32 9//32 45//32
f 15//33 48//33 47//33
f 5//34 43//34 42//34
f 52//30 60//30 59//30
f 47//35 55//35 54//35
f 44//36 45//36 53//36
f 43//37 51//37 50//37
f 48//38 56//38 55//38
f 45//39 46//39 54//39
f 43//40 44//40 52//40
f 42//41 50//41 49//41
f 64//42 57//42 60//42
f 57//42 58//42 60//42
f 58//42 59//42 60//42
f 60//42 61//42 62//42
f 62//42 63//42 64//42
f 49//29 50//29 58//29
f 56//28 49//28 57//28
f 55//31 63//31 62//31
f 53//32 61//32 60//32
f 50//34 51//34 59//34
f 55//33 56//33 64//33
f 54//10 62//10 61//10
