# Blender v2.79 (sub 0) OBJ File: 'rowboat.blend'
# www.blender.org
mtllib rowboat.mtl
o Cube.001
v 1.133468 0.852813 -1.723137
v 1.133468 0.723850 -1.723137
v -1.392986 0.852813 -1.723137
v -1.392986 0.723850 -1.723137
v 1.133468 0.852813 -2.405782
v 1.133468 0.723850 -2.405782
v -1.392986 0.852813 -2.405782
v -1.392986 0.723850 -2.405782
vn 0.0000 0.0000 1.0000
vn -1.0000 0.0000 0.0000
vn 0.0000 0.0000 -1.0000
vn 1.0000 0.0000 0.0000
vn 0.0000 1.0000 0.0000
vn 0.0000 -1.0000 0.0000
usemtl None
s off
f 2//1 1//1 3//1
f 4//2 3//2 7//2
f 8//3 7//3 5//3
f 6//4 5//4 1//4
f 7//5 3//5 1//5
f 4//6 8//6 6//6
f 2//1 3//1 4//1
f 4//2 7//2 8//2
f 8//3 5//3 6//3
f 6//4 1//4 2//4
f 7//5 1//5 5//5
f 4//6 6//6 2//6
o Cube
v -1.377198 -0.118616 -2.217286
v 1.117680 -0.118616 -2.217286
v 1.117679 -0.118616 1.913712
v -1.377198 -0.118616 1.913712
v -1.754037 1.437925 -3.411912
v 1.494520 1.437925 -3.411911
v 1.494519 1.437925 2.959774
v -1.754038 1.437925 2.959773
v -0.129758 0.583924 -4.804100
v -0.129758 1.437925 -5.528399
v -1.385313 1.437925 -2.944948
v 1.125797 1.437925 -2.944948
v -1.385314 1.437925 2.389691
v 1.125796 1.437925 2.389691
v -0.129758 1.437925 -4.763582
v -1.385313 0.100329 -2.125510
v 1.125797 0.100329 -2.125510
v -1.385314 0.100329 1.682418
v 1.125796 0.100329 1.682419
v -0.129758 0.827357 -3.756889
vn 0.0000 -1.0000 -0.0000
vn 0.0000 1.0000 0.0000
vn 0.0000 -0.9650 -0.2621
vn 0.9719 -0.2353 0.0000
vn 0.0000 -0.5578 0.8300
vn -0.9719 -0.2353 -0.0000
vn 0.7049 -0.4588 -0.5410
vn -0.6938 -0.5366 -0.4803
vn -1.0000 0.0000 -0.0000
vn 0.6006 0.6836 0.4146
vn 0.0000 0.9134 0.4071
vn -0.6273 0.4068 0.6641
vn 0.0000 0.4674 -0.8840
vn 1.0000 0.0000 0.0000
vn 0.6938 -0.5366 -0.4803
vn -0.7049 -0.4588 -0.5410
vn 0.6273 0.4068 0.6641
vn -0.6006 0.6836 0.4146
usemtl Material
s off
f 10//7 12//7 9//7
f 13//8 23//8 18//8
f 10//9 9//9 17//9
f 10//10 15//10 11//10
f 11//11 16//11 12//11
f 9//12 16//12 13//12
f 14//8 23//8 20//8
f 14//13 17//13 18//13
f 13//14 17//14 9//14
f 22//15 25//15 27//15
f 19//16 28//16 23//16
f 14//8 22//8 15//8
f 15//8 21//8 16//8
f 13//8 21//8 19//8
f 24//8 27//8 25//8
f 24//17 25//17 28//17
f 20//18 28//18 25//18
f 21//19 27//19 26//19
f 21//20 24//20 19//20
f 10//7 11//7 12//7
f 13//8 19//8 23//8
f 10//10 14//10 15//10
f 11//11 15//11 16//11
f 9//12 12//12 16//12
f 14//8 18//8 23//8
f 14//21 10//21 17//21
f 13//22 18//22 17//22
f 22//15 20//15 25//15
f 19//23 24//23 28//23
f 14//8 20//8 22//8
f 15//8 22//8 21//8
f 13//8 16//8 21//8
f 24//8 26//8 27//8
f 20//24 23//24 28//24
f 21//19 22//19 27//19
f 21//20 26//20 24//20
o Cube.002
v 1.133468 0.852813 -0.407792
v 1.133468 0.723850 -0.407792
v -1.392986 0.852813 -0.407792
v -1.392986 0.723850 -0.407792
v 1.133468 0.852813 -1.090438
v 1.133468 0.723850 -1.090438
v -1.392986 0.852813 -1.090438
v -1.392986 0.723850 -1.090438
vn 0.0000 0.0000 1.0000
vn -1.0000 0.0000 0.0000
vn -0.0000 0.0000 -1.0000
vn 1.0000 0.0000 0.0000
vn 0.0000 1.0000 0.0000
vn 0.0000 -1.0000 0.0000
usemtl None
s off
f 30//25 29//25 31//25
f 32//26 31//26 35//26
f 36//27 35//27 33//27
f 34//28 33//28 29//28
f 35//29 31//29 29//29
f 32//30 36//30 34//30
f 30//25 31//25 32//25
f 32//26 35//26 36//26
f 36//27 33//27 34//27
f 34//28 29//28 30//28
f 35//29 29//29 33//29
f 32//30 34//30 30//30
o Cube.003
v 1.133468 0.852813 2.146189
v 1.133468 0.723850 2.146189
v -1.392986 0.852813 2.146189
v -1.392986 0.723850 2.146189
v 1.133468 0.852813 1.463543
v 1.133468 0.723850 1.463543
v -1.392986 0.852813 1.463543
v -1.392986 0.723850 1.463543
vn 0.0000 0.0000 1.0000
vn -1.0000 0.0000 0.0000
vn -0.0000 0.0000 -1.0000
vn 1.0000 0.0000 0.0000
vn 0.0000 1.0000 0.0000
vn 0.0000 -1.0000 0.0000
usemtl None
s off
f 38//31 37//31 39//31
f 40//32 39//32 43//32
f 44//33 43//33 41//33
f 42//34 41//34 37//34
f 43//35 39//35 37//35
f 40//36 44//36 42//36
f 38//31 39//31 40//31
f 40//32 43//32 44//32
f 44//33 41//33 42//33
f 42//34 37//34 38//34
f 43//35 37//35 41//35
f 40//36 42//36 38//36
