# Blender v2.79 (sub 0) OBJ File: 'triforce.blend'
# www.blender.org
mtllib triforce.mtl
o Plane
v -0.020543 0.057308 -0.321821
v 1.978117 0.058082 -0.321821
v 0.979457 1.789359 -0.321821
v 0.979457 1.789359 0.320444
v -0.020543 0.057308 0.320444
v 1.978117 0.058082 0.320444
vn 0.0000 0.0000 -1.0000
vn 0.0000 -0.0000 1.0000
vn 0.8662 0.4997 0.0000
vn 0.0004 -1.0000 -0.0000
vn -0.8660 0.5000 0.0000
usemtl None
s off
f 1//1 3//1 2//1
f 5//2 6//2 4//2
f 3//3 6//3 2//3
f 2//4 5//4 1//4
f 1//5 4//5 3//5
f 3//3 4//3 6//3
f 2//4 6//4 5//4
f 1//5 5//5 4//5
o Plane.001
v -2.018767 0.056283 -0.321821
v -0.020107 0.057056 -0.321821
v -1.018767 1.788333 -0.321821
v -1.018767 1.788333 0.320444
v -2.018767 0.056283 0.320444
v -0.020107 0.057056 0.320444
vn 0.0000 0.0000 -1.0000
vn 0.0000 -0.0000 1.0000
vn 0.8662 0.4997 0.0000
vn 0.0004 -1.0000 -0.0000
vn -0.8660 0.5000 0.0000
usemtl None
s off
f 7//6 9//6 8//6
f 11//7 12//7 10//7
f 9//8 12//8 8//8
f 8//9 11//9 7//9
f 7//10 10//10 9//10
f 9//8 10//8 12//8
f 8//9 12//9 11//9
f 7//10 11//10 10//10
o Plane.002
v -1.018767 1.788333 -0.321821
v 0.979893 1.789107 -0.321821
v -0.018767 3.520384 -0.321821
v -0.018767 3.520384 0.320445
v -1.018767 1.788333 0.320444
v 0.979893 1.789107 0.320444
vn -0.0000 0.0000 -1.0000
vn 0.0000 -0.0000 1.0000
vn 0.8662 0.4997 0.0000
vn 0.0004 -1.0000 0.0000
vn -0.8660 0.5000 0.0000
usemtl None
s off
f 13//11 15//11 14//11
f 17//12 18//12 16//12
f 15//13 18//13 14//13
f 14//14 17//14 13//14
f 13//15 16//15 15//15
f 15//13 16//13 18//13
f 14//14 18//14 17//14
f 13//15 17//15 16//15
